<?xml version="1.0" encoding="UTF-8" standalone="no"?>
<svg
   xmlns:dc="http://purl.org/dc/elements/1.1/"
   xmlns:cc="http://creativecommons.org/ns#"
   xmlns:rdf="http://www.w3.org/1999/02/22-rdf-syntax-ns#"
   xmlns:svg="http://www.w3.org/2000/svg"
   xmlns="http://www.w3.org/2000/svg"
   xmlns:sodipodi="http://sodipodi.sourceforge.net/DTD/sodipodi-0.dtd"
   xmlns:inkscape="http://www.inkscape.org/namespaces/inkscape"
   width="40mm"
   height="40mm"
   viewBox="0 0 40 40"
   version="1.1"
   id="svg8"
   sodipodi:docname="Anonymous2.svg"
   inkscape:version="1.0.2-2 (e86c870879, 2021-01-15)">
  <defs
     id="defs2" />
  <sodipodi:namedview
     id="base"
     pagecolor="#ffffff"
     bordercolor="#666666"
     borderopacity="1.0"
     inkscape:pageopacity="0.0"
     inkscape:pageshadow="2"
     inkscape:zoom="16"
     inkscape:cx="48.756734"
     inkscape:cy="78.301971"
     inkscape:document-units="mm"
     inkscape:current-layer="layer1"
     inkscape:document-rotation="0"
     showgrid="false"
     inkscape:window-width="1346"
     inkscape:window-height="1198"
     inkscape:window-x="312"
     inkscape:window-y="163"
     inkscape:window-maximized="0" />
  <metadata
     id="metadata5">
    <rdf:RDF>
      <cc:Work
         rdf:about="">
        <dc:format>image/svg+xml</dc:format>
        <dc:type
           rdf:resource="http://purl.org/dc/dcmitype/StillImage" />
        <dc:title></dc:title>
      </cc:Work>
    </rdf:RDF>
  </metadata>
  <g
     inkscape:label="Layer 1"
     inkscape:groupmode="layer"
     id="layer1">
    <path
       style="fill:#000000;stroke-width:0.0625"
       d="m 32.171239,98.067596 c 0.161886,-0.903862 0.567664,-1.836417 1.066746,-2.451585 0.166643,-0.205404 0.509367,-0.546443 0.76161,-0.757865 0.968663,-0.811904 2.054154,-1.327908 4.507139,-2.142536 2.52444,-0.838358 3.510752,-1.320713 4.286221,-2.096173 0.682023,-0.682016 0.89704,-1.229384 0.899751,-2.290497 0.0032,-1.235982 -0.404838,-1.998477 -1.720304,-3.215043 -1.774317,-1.640918 -2.521098,-3.796654 -2.775705,-8.012635 -0.207092,-3.429183 0.0441,-5.271838 1.075982,-7.893041 0.477446,-1.212816 1.092313,-2.434421 1.572897,-3.125 0.486635,-0.699275 1.613997,-1.813431 2.317408,-2.290264 1.069309,-0.724871 2.235981,-1.208969 3.548265,-1.472315 0.985756,-0.19782 2.355214,-0.19782 3.34097,0 3.021395,0.606327 5.381881,2.460665 6.732524,5.288899 1.408861,2.950142 1.930641,5.306627 1.820913,8.22368 -0.156013,4.147516 -0.561267,6.068817 -1.67308,7.932052 -0.250686,0.420113 -0.525713,0.740349 -1.26608,1.474198 -1.00175,0.99293 -1.268039,1.375775 -1.49979,2.15625 -0.210247,0.708053 -0.110128,1.861169 0.217437,2.504343 0.531068,1.042753 2.15901,2.000802 4.716341,2.775585 3.914955,1.186097 5.756912,2.609158 6.341678,4.899458 0.06989,0.27373 0.127072,0.542224 0.127072,0.596652 0,0.09004 -1.551701,0.09896 -17.217188,0.09896 H 32.134859 Z"
       id="path46"
       transform="scale(0.26458333)" />
  </g>
</svg>
